<?xml version="1.0"?>
<svg xmlns="http://www.w3.org/2000/svg" xmlns:xlink="http://www.w3.org/1999/xlink" xmlns:svgjs="http://svgjs.com/svgjs" version="1.1" width="512" height="512" x="0" y="0" viewBox="0 0 94.834 94.833" style="enable-background:new 0 0 512 512" xml:space="preserve" class=""><g>
<g xmlns="http://www.w3.org/2000/svg">
	<g>
		<path d="M44.794,46.987c0-0.53-0.211-1.039-0.586-1.414L11.444,12.812c-0.781-0.781-2.047-0.781-2.828,0l-8.03,8.029    C0.211,21.215,0,21.725,0,22.254c0,0.53,0.211,1.039,0.586,1.414l23.319,23.319L0.586,70.307C0.211,70.682,0,71.191,0,71.721    s0.211,1.039,0.586,1.414l8.03,8.029c0.391,0.391,0.902,0.586,1.414,0.586c0.512,0,1.023-0.195,1.414-0.586l32.764-32.764    C44.583,48.026,44.794,47.519,44.794,46.987z" fill="#472663" data-original="#000000" style=""/>
		<path d="M92.834,69.811H41.98c-1.104,0-2,0.896-2,2v8.797c0,1.104,0.896,2,2,2h50.854c1.104,0,2-0.896,2-2v-8.797    C94.834,70.707,93.938,69.811,92.834,69.811z" fill="#472663" data-original="#000000" style=""/>
	</g>
</g>
<g xmlns="http://www.w3.org/2000/svg">
</g>
<g xmlns="http://www.w3.org/2000/svg">
</g>
<g xmlns="http://www.w3.org/2000/svg">
</g>
<g xmlns="http://www.w3.org/2000/svg">
</g>
<g xmlns="http://www.w3.org/2000/svg">
</g>
<g xmlns="http://www.w3.org/2000/svg">
</g>
<g xmlns="http://www.w3.org/2000/svg">
</g>
<g xmlns="http://www.w3.org/2000/svg">
</g>
<g xmlns="http://www.w3.org/2000/svg">
</g>
<g xmlns="http://www.w3.org/2000/svg">
</g>
<g xmlns="http://www.w3.org/2000/svg">
</g>
<g xmlns="http://www.w3.org/2000/svg">
</g>
<g xmlns="http://www.w3.org/2000/svg">
</g>
<g xmlns="http://www.w3.org/2000/svg">
</g>
<g xmlns="http://www.w3.org/2000/svg">
</g>
</g></svg>
